<svg width="128" height="44" viewBox="0 0 128 44" fill="none" xmlns="http://www.w3.org/2000/svg">
<path fill-rule="evenodd" clip-rule="evenodd" d="M2.74899 18.3791C2.74899 9.76075 9.67205 2.7742 18.2121 2.7742C26.7521 2.7742 33.6752 9.76075 33.6752 18.3791C33.6752 22.5856 31.6856 26.2575 28.4274 30.0489C26.19 32.6525 23.4737 35.1864 20.5335 37.9293L20.5334 37.9293L20.5334 37.9294L20.5334 37.9294C19.1397 39.2295 17.6957 40.5766 16.2285 42.0003L18.1339 44C19.5015 42.6729 20.891 41.3763 22.259 40.0996C25.2643 37.2952 28.1659 34.5874 30.5042 31.8666C33.9466 27.8609 36.4242 23.557 36.4242 18.3791C36.4242 8.2286 28.2703 0 18.2121 0C8.15383 0 0 8.2286 0 18.3791C0 23.7618 2.2947 28.6057 5.94652 31.9651L7.79845 29.9149C4.694 27.059 2.74899 22.9493 2.74899 18.3791ZM13.745 16.6452V22.8872H19.9302V25.6614H12.3705H10.996V24.2743V16.6452H13.745ZM22.6792 13.871V20.113H25.4282V12.4839V11.0968H24.0537H16.494V13.871H22.6792ZM48.4263 4.44984V11.7904H49.9973V4.44984H52.5085L53.0157 3.05164H45.5935V4.44984H48.4263ZM54.1578 14.0999V10.954H54.1825C54.3722 11.2203 54.632 11.4492 54.9619 11.6406C55.3 11.8237 55.6711 11.9152 56.0752 11.9152C56.8999 11.9152 57.5803 11.6114 58.1163 11.0039C58.6606 10.388 58.9328 9.60569 58.9328 8.65692C58.9328 7.70814 58.6606 6.92997 58.1163 6.32242C57.5803 5.70655 56.8999 5.39861 56.0752 5.39861C55.6711 5.39861 55.3 5.49432 54.9619 5.68574C54.632 5.86884 54.3722 6.09355 54.1825 6.35988H54.1578V5.54842H52.661V14.0999H54.1578ZM54.5536 10.0301C54.2485 9.66395 54.0959 9.20205 54.0959 8.64443C54.0959 8.09514 54.2485 7.64156 54.5536 7.28369C54.867 6.92581 55.2629 6.74688 55.7412 6.74688C56.2195 6.74688 56.6113 6.92581 56.9164 7.28369C57.2298 7.64156 57.3865 8.09514 57.3865 8.64443C57.3865 9.20205 57.2298 9.66395 56.9164 10.0301C56.6113 10.388 56.2195 10.567 55.7412 10.567C55.2629 10.567 54.867 10.388 54.5536 10.0301ZM61.8914 11.9402C61.2646 11.9402 60.745 11.7446 60.3327 11.3534C59.9203 10.9623 59.7141 10.4754 59.7141 9.89282C59.7141 9.32688 59.9409 8.84417 60.3945 8.44469C60.8481 8.0452 61.5285 7.84546 62.4356 7.84546C62.7655 7.84546 63.149 7.87459 63.5861 7.93285V7.74559C63.5861 7.42101 63.4789 7.17133 63.2645 6.99656C63.05 6.82178 62.7697 6.73439 62.4233 6.73439C61.9037 6.73439 61.4007 6.90917 60.9141 7.25872L59.9739 6.30994C60.3038 6.02697 60.6955 5.80642 61.1491 5.64829C61.6027 5.48184 62.0522 5.39861 62.4975 5.39861C63.3057 5.39861 63.9366 5.61084 64.3902 6.03529C64.852 6.45142 65.0829 7.05065 65.0829 7.83298V11.7904H63.6356V11.1662H63.6108C63.2397 11.6822 62.6666 11.9402 61.8914 11.9402ZM62.2625 10.7168C62.6583 10.7168 62.9758 10.5836 63.215 10.3173C63.4624 10.0426 63.5861 9.71805 63.5861 9.34353V9.06888C63.2067 9.01063 62.8521 8.9815 62.5222 8.9815C62.1181 8.9815 61.8006 9.06472 61.5697 9.23117C61.3471 9.3893 61.2357 9.60569 61.2357 9.88034C61.2357 10.105 61.3264 10.3006 61.5079 10.4671C61.6893 10.6335 61.9408 10.7168 62.2625 10.7168ZM66.6686 5.54842V11.7904H68.1654V9.26863H70.5158V11.7904H72.0126V5.54842H70.5158V7.92036H68.1654V5.54842H66.6686ZM76.3073 11.9402C75.4166 11.9402 74.6826 11.6364 74.1053 11.0289C73.5363 10.413 73.2518 9.6265 73.2518 8.6694C73.2518 7.7123 73.5363 6.92997 74.1053 6.32242C74.6826 5.70655 75.4166 5.39861 76.3073 5.39861C77.231 5.39861 77.9814 5.68991 78.5587 6.27249L77.6186 7.22127C77.2969 6.89668 76.8805 6.73439 76.3691 6.73439C75.8991 6.73439 75.5156 6.91749 75.2187 7.28369C74.93 7.64156 74.7857 8.10346 74.7857 8.6694C74.7857 9.23534 74.93 9.7014 75.2187 10.0676C75.5156 10.4255 75.8991 10.6044 76.3691 10.6044C76.8805 10.6044 77.2969 10.4421 77.6186 10.1175L78.5587 11.0663C77.9814 11.6489 77.231 11.9402 76.3073 11.9402ZM84.9451 5.54842H79.601V11.7904H81.0978V6.83426H83.4482V11.7904H84.9451V5.54842ZM91.5283 11.0164C90.9427 11.6322 90.2005 11.9402 89.3016 11.9402C88.4027 11.9402 87.6563 11.6322 87.0625 11.0164C86.477 10.4005 86.1842 9.61818 86.1842 8.6694C86.1842 7.72062 86.477 6.9383 87.0625 6.32242C87.6563 5.70655 88.4027 5.39861 89.3016 5.39861C90.2005 5.39861 90.9427 5.70655 91.5283 6.32242C92.1221 6.9383 92.419 7.72062 92.419 8.6694C92.419 9.61818 92.1221 10.4005 91.5283 11.0164ZM88.1511 10.0551C88.448 10.413 88.8315 10.5919 89.3016 10.5919C89.7717 10.5919 90.151 10.413 90.4397 10.0551C90.7366 9.68892 90.885 9.22701 90.885 8.6694C90.885 8.11178 90.7366 7.65404 90.4397 7.29617C90.151 6.92997 89.7717 6.74688 89.3016 6.74688C88.8315 6.74688 88.448 6.92997 88.1511 7.29617C87.8625 7.65404 87.7182 8.11178 87.7182 8.6694C87.7182 9.22701 87.8625 9.68892 88.1511 10.0551ZM95.1538 14.0999V10.954H95.1785C95.3682 11.2203 95.628 11.4492 95.9579 11.6406C96.296 11.8237 96.6671 11.9152 97.0712 11.9152C97.8959 11.9152 98.5763 11.6114 99.1123 11.0039C99.6566 10.388 99.9288 9.60569 99.9288 8.65692C99.9288 7.70814 99.6566 6.92997 99.1123 6.32242C98.5763 5.70655 97.8959 5.39861 97.0712 5.39861C96.6671 5.39861 96.296 5.49432 95.9579 5.68574C95.628 5.86884 95.3682 6.09355 95.1785 6.35988H95.1538V5.54842H93.657V14.0999H95.1538ZM95.5497 10.0301C95.2445 9.66395 95.0919 9.20205 95.0919 8.64443C95.0919 8.09514 95.2445 7.64156 95.5497 7.28369C95.863 6.92581 96.2589 6.74688 96.7372 6.74688C97.2155 6.74688 97.6073 6.92581 97.9124 7.28369C98.2258 7.64156 98.3825 8.09514 98.3825 8.64443C98.3825 9.20205 98.2258 9.66395 97.9124 10.0301C97.6073 10.388 97.2155 10.567 96.7372 10.567C96.2589 10.567 95.863 10.388 95.5497 10.0301ZM102.222 11.7904V6.83426H100.366V5.54842H105.71L105.253 6.83426H103.719V11.7904H102.222ZM108.002 5.54842H106.505V11.7904H108.002V9.26863H110.352V11.7904H111.849V5.54842H110.352V7.92036H108.002V5.54842ZM119.273 5.54842H120.77V11.7904H119.273V5.54842ZM113.509 5.54842H115.006V7.72062H116.304C117.005 7.72062 117.574 7.90372 118.012 8.26991C118.449 8.62779 118.667 9.12298 118.667 9.7555C118.667 10.3797 118.449 10.8749 118.012 11.2411C117.574 11.6073 117.005 11.7904 116.304 11.7904H113.509V5.54842ZM115.006 10.6419H116.082C116.387 10.6419 116.634 10.567 116.824 10.4171C117.014 10.2673 117.108 10.0468 117.108 9.7555C117.108 9.46421 117.014 9.24366 116.824 9.09385C116.634 8.94404 116.387 8.86914 116.082 8.86914H115.006V10.6419ZM122.928 11.0538C123.538 11.6447 124.281 11.9402 125.155 11.9402C126.177 11.9402 127.023 11.6073 127.691 10.9415L126.738 9.98021C126.367 10.3797 125.889 10.5794 125.303 10.5794C124.874 10.5794 124.499 10.4588 124.178 10.2174C123.864 9.96773 123.674 9.61401 123.608 9.15627H128V8.85666C128 7.71646 127.72 6.85507 127.159 6.27249C126.606 5.68991 125.893 5.39861 125.019 5.39861C124.161 5.39861 123.444 5.70655 122.866 6.32242C122.297 6.9383 122.013 7.72478 122.013 8.68188C122.013 9.66395 122.318 10.4546 122.928 11.0538ZM126.417 8.05769H123.596C123.646 7.68317 123.802 7.35859 124.066 7.08394C124.33 6.80097 124.656 6.65949 125.043 6.65949C125.431 6.65949 125.749 6.79265 125.996 7.05897C126.252 7.3253 126.392 7.6582 126.417 8.05769ZM70.0781 24.4241C70.977 24.4241 71.7192 24.1161 72.3048 23.5003C72.8985 22.8844 73.1954 22.1021 73.1954 21.1533C73.1954 20.2045 72.8985 19.4222 72.3048 18.8063C71.7192 18.1904 70.977 17.8825 70.0781 17.8825C69.1791 17.8825 68.4328 18.1904 67.839 18.8063C67.2535 19.4222 66.9607 20.2045 66.9607 21.1533C66.9607 22.1021 67.2535 22.8844 67.839 23.5003C68.4328 24.1161 69.1791 24.4241 70.0781 24.4241ZM70.0781 23.0758C69.608 23.0758 69.2245 22.8969 68.9276 22.539C68.639 22.1728 68.4947 21.7109 68.4947 21.1533C68.4947 20.5957 68.639 20.1379 68.9276 19.7801C69.2245 19.4139 69.608 19.2308 70.0781 19.2308C70.5482 19.2308 70.9275 19.4139 71.2162 19.7801C71.513 20.1379 71.6615 20.5957 71.6615 21.1533C71.6615 21.7109 71.513 22.1728 71.2162 22.539C70.9275 22.8969 70.5482 23.0758 70.0781 23.0758ZM46.2491 18.0323V24.2743H47.5356L50.1953 20.3918H50.22V24.2743H51.7168V18.0323H50.4303L47.7706 21.9148H47.7459V18.0323H46.2491ZM53.3737 18.0323V24.2743H54.8705V21.7525H57.2209V24.2743H58.7177V18.0323H57.2209V20.4043H54.8705V18.0323H53.3737ZM60.3775 24.2743V18.0323H61.8743V20.4043H64.2247V18.0323H65.7215V24.2743H64.2247V21.7525H61.8743V24.2743H60.3775ZM77.6374 24.2743H74.4334V18.0323H77.4147C78.0497 18.0323 78.5611 18.178 78.9487 18.4692C79.3445 18.7522 79.5424 19.1517 79.5424 19.6677C79.5424 19.9673 79.4559 20.2336 79.2827 20.4667C79.1095 20.6914 78.9157 20.8495 78.7013 20.9411V20.966C79.0476 21.0742 79.3239 21.2615 79.5301 21.5278C79.7363 21.7858 79.8393 22.0854 79.8393 22.4266C79.8393 23.0009 79.6373 23.4545 79.2332 23.7874C78.8291 24.112 78.2972 24.2743 77.6374 24.2743ZM75.9303 20.579H77.1921C77.4395 20.579 77.6333 20.5166 77.7735 20.3918C77.9219 20.2669 77.9961 20.0922 77.9961 19.8674C77.9961 19.6511 77.9219 19.4846 77.7735 19.3681C77.6333 19.2433 77.4395 19.1808 77.1921 19.1808H75.9303V20.579ZM75.9303 23.1257H77.4518C77.6992 23.1257 77.8972 23.0633 78.0456 22.9385C78.2023 22.8053 78.2807 22.6264 78.2807 22.4017C78.2807 22.1853 78.2023 22.0105 78.0456 21.8774C77.8889 21.7442 77.6827 21.6776 77.4271 21.6776H75.9303V23.1257ZM81.2112 23.8373C81.6236 24.2285 82.1431 24.4241 82.7699 24.4241C83.5451 24.4241 84.1183 24.1661 84.4894 23.6501H84.5141V24.2743H85.9615V20.3169C85.9615 19.5345 85.7305 18.9353 85.2687 18.5192C84.8151 18.0947 84.1842 17.8825 83.376 17.8825C82.9307 17.8825 82.4812 17.9657 82.0277 18.1322C81.5741 18.2903 81.1823 18.5109 80.8525 18.7938L81.7926 19.7426C82.2792 19.3931 82.7823 19.2183 83.3018 19.2183C83.6482 19.2183 83.9286 19.3057 84.143 19.4804C84.3574 19.6552 84.4646 19.9049 84.4646 20.2295V20.4167C84.0275 20.3585 83.6441 20.3294 83.3142 20.3294C82.407 20.3294 81.7266 20.5291 81.2731 20.9286C80.8195 21.3281 80.5927 21.8108 80.5927 22.3767C80.5927 22.9593 80.7989 23.4462 81.2112 23.8373ZM84.0935 22.8012C83.8544 23.0675 83.5368 23.2006 83.141 23.2006C82.8194 23.2006 82.5678 23.1174 82.3864 22.951C82.205 22.7845 82.1142 22.5889 82.1142 22.3642C82.1142 22.0896 82.2256 21.8732 82.4482 21.7151C82.6792 21.5486 82.9967 21.4654 83.4008 21.4654C83.7307 21.4654 84.0853 21.4945 84.4646 21.5528V21.8274C84.4646 22.2019 84.3409 22.5265 84.0935 22.8012ZM92.3716 25.8348V24.2743H87.5471V18.0323H89.0439V22.9884H91.2706V18.0323H92.7674V22.9884H93.7571V25.8348H92.3716ZM96.386 18.0323H94.8892V24.2743H96.1757L98.8353 20.3918H98.8601V24.2743H100.357V18.0323H99.0704L96.4107 21.9148H96.386V18.0323ZM102.014 18.0323H103.511V21.9148H103.535L106.195 18.0323H107.482V24.2743H105.985V20.3918H105.96L103.3 24.2743H102.014V18.0323ZM45.4945 36.0646H47.214L48.9706 30.1598H48.9953L50.9498 36.0646H52.3848L54.3393 30.1598H54.3641L56.1207 36.0646H57.8402L55.0445 27.3259H53.7579L51.6797 33.6802H51.6549L49.5767 27.3259H48.2902L45.4945 36.0646ZM61.4342 36.2145C62.3331 36.2145 63.0753 35.9065 63.6609 35.2906C64.2547 34.6748 64.5515 33.8924 64.5515 32.9437C64.5515 31.9949 64.2547 31.2126 63.6609 30.5967C63.0753 29.9808 62.3331 29.6729 61.4342 29.6729C60.5353 29.6729 59.7889 29.9808 59.1951 30.5967C58.6096 31.2126 58.3168 31.9949 58.3168 32.9437C58.3168 33.8924 58.6096 34.6748 59.1951 35.2906C59.7889 35.9065 60.5353 36.2145 61.4342 36.2145ZM61.4342 34.8662C60.9641 34.8662 60.5806 34.6873 60.2837 34.3294C59.9951 33.9632 59.8508 33.5013 59.8508 32.9437C59.8508 32.3861 59.9951 31.9283 60.2837 31.5704C60.5806 31.2042 60.9641 31.0211 61.4342 31.0211C61.9043 31.0211 62.2836 31.2042 62.5723 31.5704C62.8692 31.9283 63.0176 32.3861 63.0176 32.9437C63.0176 33.5013 62.8692 33.9632 62.5723 34.3294C62.2836 34.6873 61.9043 34.8662 61.4342 34.8662ZM68.4245 36.2145C67.5338 36.2145 66.7998 35.9107 66.2225 35.3031C65.6535 34.6873 65.369 33.9008 65.369 32.9437C65.369 31.9866 65.6535 31.2042 66.2225 30.5967C66.7998 29.9808 67.5338 29.6729 68.4245 29.6729C69.3481 29.6729 70.0986 29.9642 70.6759 30.5468L69.7357 31.4955C69.4141 31.171 68.9976 31.0087 68.4863 31.0087C68.0162 31.0087 67.6328 31.1918 67.3359 31.558C67.0472 31.9158 66.9029 32.3777 66.9029 32.9437C66.9029 33.5096 67.0472 33.9757 67.3359 34.3419C67.6328 34.6997 68.0162 34.8787 68.4863 34.8787C68.9976 34.8787 69.4141 34.7164 69.7357 34.3918L70.6759 35.3406C70.0986 35.9232 69.3481 36.2145 68.4245 36.2145ZM73.215 29.8227H71.7182V36.0646H73.215V33.5304H73.8954L75.7015 36.0646H77.4457L75.0953 32.7939L77.087 29.8227H75.4788L73.8459 32.282H73.215V29.8227ZM81.3944 36.0646H78.1905V29.8227H81.1718C81.8068 29.8227 82.3181 29.9683 82.7057 30.2596C83.1015 30.5426 83.2995 30.9421 83.2995 31.4581C83.2995 31.7577 83.2129 32.024 83.0397 32.2571C82.8665 32.4818 82.6727 32.6399 82.4583 32.7314V32.7564C82.8047 32.8646 83.0809 33.0519 83.2871 33.3182C83.4933 33.5762 83.5964 33.8758 83.5964 34.217C83.5964 34.7913 83.3943 35.2449 82.9902 35.5778C82.5861 35.9024 82.0542 36.0646 81.3944 36.0646ZM79.6873 32.3694H80.9491C81.1965 32.3694 81.3903 32.307 81.5305 32.1821C81.6789 32.0573 81.7532 31.8825 81.7532 31.6578C81.7532 31.4414 81.6789 31.275 81.5305 31.1585C81.3903 31.0336 81.1965 30.9712 80.9491 30.9712H79.6873V32.3694ZM79.6873 34.9161H81.2089C81.4563 34.9161 81.6542 34.8537 81.8027 34.7289C81.9593 34.5957 82.0377 34.4168 82.0377 34.1921C82.0377 33.9757 81.9593 33.8009 81.8027 33.6677C81.646 33.5346 81.4398 33.468 81.1841 33.468H79.6873V34.9161ZM92.0813 29.8227H90.5844V36.0646H92.0813V29.8227ZM86.3166 29.8227H84.8198V36.0646H87.6155C88.3165 36.0646 88.8855 35.8815 89.3226 35.5154C89.7597 35.1492 89.9783 34.654 89.9783 34.0298C89.9783 33.3973 89.7597 32.9021 89.3226 32.5442C88.8855 32.178 88.3165 31.9949 87.6155 31.9949H86.3166V29.8227ZM87.3928 34.9161H86.3166V33.1434H87.3928C87.698 33.1434 87.9454 33.2183 88.1351 33.3681C88.3247 33.5179 88.4196 33.7385 88.4196 34.0298C88.4196 34.3211 88.3247 34.5416 88.1351 34.6914C87.9454 34.8412 87.698 34.9161 87.3928 34.9161Z" fill="#009A96"/>
</svg>
